<?xml version="1.0" encoding="UTF-8" standalone="no"?>
<!-- Created with Inkscape (http://www.inkscape.org/) -->

<svg
   width="512"
   height="512"
   viewBox="0 0 512 512"
   version="1.1"
   id="svg1"
   xmlns="http://www.w3.org/2000/svg"
   xmlns:svg="http://www.w3.org/2000/svg">
  <defs
     id="defs1" />
  <g
     id="layer1">
    <path
       style="fill:#000000"
       id="path12"
       d="m 264.90301,133.35657 c 7.6155,15.50562 15.76622,31.07669 27.47365,43.98242 4.89661,5.3978 10.52947,10.0788 15.7942,15.1182 6.32373,4.25783 12.25672,9.16316 18.97119,12.77351 6.40619,3.44459 13.13131,6.51839 20.18777,8.28213 12.87019,3.21687 25.91292,2.74011 38.03522,-2.95272 14.10545,-6.62415 15.26871,-12.1512 23.23889,-24.4721 1.30739,-5.0939 3.44487,-10.04441 3.92219,-15.28171 0.4147,-4.55027 0.23951,-9.3399 -1.28568,-13.64695 -2.97875,-8.41181 -10.0207,-13.20493 -18.61886,-14.43809 -12.70774,-1.82258 -22.27517,2.74937 -34.17518,6.382 -15.70012,7.63292 -21.41983,9.37587 -35.19747,20.13553 -10.83245,8.45962 -19.13208,17.55976 -27.421,28.46043 -10.18599,13.39547 -13.30885,20.25382 -21.76805,35.28009 -6.582,14.48415 -11.79086,23.78107 -15.22165,39.24656 -2.0119,9.06939 -3.47588,19.22348 2.0946,27.60742 5.79028,8.71477 12.13074,7.62022 21.31873,9.12518 16.66293,-3.18052 16.96966,-2.13437 33.21594,-10.30348 5.61589,-2.82383 10.79592,-6.44181 16.19388,-9.66272 4.7e-4,-4e-4 -0.005,-0.007 -0.006,-0.007 v 0 c -5.39769,3.22069 -10.57753,6.8383 -16.19306,9.66205 -16.24348,8.16799 -16.55001,7.12261 -33.20841,10.30421 -9.18511,-1.50327 -15.52583,-0.40824 -21.31463,-9.12039 -5.56977,-8.38253 -4.10463,-18.53584 -2.0927,-27.60332 3.43117,-15.46377 8.64038,-24.76214 15.22171,-39.24481 8.46027,-15.02939 11.57901,-21.88159 21.76674,-35.27915 8.28843,-10.89986 16.58791,-19.99982 27.41969,-28.45875 13.77593,-10.75812 19.49765,-12.50236 35.19557,-20.13441 11.89363,-3.63119 21.4654,-8.20417 34.16711,-6.38383 8.59627,1.23198 15.63713,6.02257 18.61532,14.43273 1.52496,4.30633 1.69998,9.0952 1.28529,13.6447 -0.47731,5.23657 -2.61449,10.18637 -3.92174,15.27956 -7.9699,12.32056 -9.13095,17.84385 -23.23549,24.46821 -12.11952,5.69207 -25.15853,6.16851 -38.0261,2.95246 -7.05595,-1.76353 -13.78056,-4.83711 -20.18631,-8.28134 -6.71415,-3.61003 -12.64696,-8.51488 -18.97043,-12.77231 -5.26476,-5.03891 -10.89759,-9.71943 -15.79428,-15.11671 -11.70805,-12.90496 -19.85912,-28.47534 -27.4773,-43.97944 -1.1e-4,-2.7e-4 -0.004,0.001 -0.004,0.002 z" />
    <path
       style="fill:#000000"
       id="path13"
       d="m 266.42472,123.25936 c -0.12571,-0.56207 -0.26066,-1.12215 -0.37714,-1.6862 -0.12848,-0.6222 -0.65067,-3.56629 -0.89047,-4.17889 -0.068,-0.17365 -0.39556,-0.50516 -0.45331,-0.32785 -0.57411,1.76273 0.0808,8.09817 0.0977,8.40177 1.12122,4.31801 1.95055,8.72255 3.36367,12.95404 3.88429,11.63125 10.67645,27.57262 17.26781,37.67425 4.43257,6.79315 9.46304,13.24423 15.06703,19.10851 5.32771,5.57517 11.07871,10.88786 17.57244,15.04699 5.79986,3.71471 12.60855,5.54746 18.91282,8.32119 6.02924,0.23821 12.15477,1.81402 18.08771,0.71462 18.91977,-3.50594 31.68194,-20.55111 38.66289,-37.08609 2.49588,-5.9117 4.27825,-12.14775 5.51148,-18.44511 1.12617,-5.75072 1.02019,-11.67542 1.53029,-17.51312 -0.69406,-4.85458 -0.6228,-9.88197 -2.08218,-14.56372 -3.637,-11.66767 -12.87755,-19.36619 -25.48171,-17.89427 -11.29687,1.31925 -17.47682,6.73229 -26.95016,12.55665 -4.81755,4.48933 -10.02557,8.59317 -14.45264,13.46799 -10.54453,11.61097 -20.72193,26.84534 -28.35804,40.4085 -8.71657,15.48225 -16.47449,32.72342 -22.40077,49.47157 -2.67951,7.57254 -4.62695,15.38453 -6.94043,23.07679 -2.1755,12.06997 -5.19928,21.74969 -3.22467,33.94959 1.03259,6.3797 3.80002,12.14377 10.14165,14.60637 6.32465,2.456 12.17488,0.30817 18.36062,-0.90366 10.75787,-3.50047 20.82517,-8.9343 28.9218,-16.91997 2.4789,-2.44494 3.18589,-3.6437 5.06298,-6.2892 1.21731,-2.31556 0.91331,-1.23338 1.22382,-3.14231 4e-5,-2.8e-4 -0.004,-8.4e-4 -0.004,-5.5e-4 v 0 c -0.31052,1.90758 -0.007,0.82595 -1.22381,3.14054 -1.87729,2.64516 -2.58405,3.84331 -5.06309,6.28796 -8.09666,7.98431 -18.16314,13.41751 -28.92019,16.91771 -6.18269,1.21187 -12.03176,3.35946 -18.35384,0.90536 -6.34047,-2.46125 -9.10645,-8.22432 -10.13822,-14.60236 -1.9734,-12.19877 1.05084,-21.8785 3.22683,-33.94703 2.31365,-7.69193 4.26141,-15.50355 6.94096,-23.07579 5.92644,-16.74771 13.6837,-33.98813 22.39983,-49.47022 7.63487,-13.56148 17.81283,-28.79763 28.35556,-40.40759 4.42654,-4.87464 9.634,-8.97839 14.45101,-13.46759 9.46772,-5.82141 15.65203,-11.23673 26.94262,-12.55648 12.60178,-1.47302 21.84036,6.22306 25.47635,17.8889 1.45906,4.68129 1.3876,9.70813 2.08139,14.56219 -0.51016,5.8372 -0.40437,11.76138 -1.53049,17.5116 -1.23316,6.29683 -3.01534,12.53235 -5.51095,18.44358 -6.97847,16.52955 -19.73824,33.57598 -38.65243,37.08156 -5.93198,1.09943 -12.05661,-0.47602 -18.08491,-0.71403 -6.30354,-2.77337 -13.11146,-4.60585 -18.91063,-8.32012 -6.49327,-4.15883 -12.24379,-9.47119 -17.5712,-15.04587 -5.60376,-5.86384 -10.63422,-12.3143 -15.06676,-19.10689 -6.59116,-10.10053 -13.38428,-26.0421 -17.26957,-37.672 -1.41351,-4.23107 -2.24365,-8.63516 -3.36547,-12.95274 -0.0148,-0.26496 -0.66825,-6.65014 -0.10579,-8.39872 0.0569,-0.17677 0.38416,0.15295 0.4518,0.32588 0.23979,0.61304 0.76196,3.55632 0.89057,4.17883 0.11654,0.56411 0.2516,1.12424 0.37739,1.68636 7e-5,2.7e-4 0.004,-6.5e-4 0.004,-9.3e-4 z" />
    <ellipse
       style="fill:none"
       id="path60"
       ry="62.056736"
       rx="60.638298"
       cy="383.33334"
       cx="206.02837" />
    <path
       id="path159"
       style="fill:#000000;stroke:#000000;stroke-width:2.24364;stroke-linecap:butt;stroke-linejoin:round;stroke-dasharray:none;paint-order:normal"
       d="m 342.81429,86.857216 c -6.83225,0.71267 -14.04529,-0.224032 -20.49609,2.136719 -16.34291,5.980687 -29.08738,21.287795 -38.18555,35.042965 -22.25426,33.64546 -31.32838,73.64397 -42.01758,111.85547 -0.26764,1.09453 -0.53295,2.18984 -0.79687,3.28516 -6.08418,-3.49271 -11.45874,-8.527 -16.55664,-13.32813 -22.57266,-21.25872 -32.22697,-49.40363 -40.75586,-78.19531 -1.51419,-6.54251 -2.96952,-13.09848 -4.54297,-19.62695 -0.39116,-1.6229 -0.86975,-3.22674 -1.32812,-4.83399 -0.24079,-0.4689 -0.46891,-0.94415 -0.71289,-1.4121 -0.10942,-0.24082 -0.22023,-0.48107 -0.33204,-0.72071 -0.0235,-0.0417 -0.0469,-0.0833 -0.0703,-0.125 -0.0552,-0.0999 -0.11,-0.20037 -0.16406,-0.30078 -0.006,-10e-4 -0.0117,-0.002 -0.0176,-0.004 -0.93059,9.18259 1.59678,19.27721 2.81445,27.70704 6.98067,29.74624 16.88588,59.13573 39.64258,80.9375 6.20849,5.94767 12.89487,12.04654 20.63086,15.75781 -6.4699,27.53577 -11.87962,55.29714 -17.48828,83.01758 -8.35844,-6.49181 -16.83771,-12.82341 -25.58203,-18.80469 -12.57948,-4.83443 -21.67981,-11.46424 -35.5,-6.30469 -4.91341,1.83433 -9.15235,5.51993 -12.49609,9.56055 -8.06031,9.74019 -11.40838,23.03788 -11.72461,35.35156 -0.17425,6.75721 1.491,13.43607 2.23632,20.1543 2.10944,6.46268 3.60436,13.15991 6.32813,19.38867 4.87342,11.14427 10.93363,20.0672 20.09766,27.98047 5.90799,5.10143 14.16425,10.34655 22.55859,9.71289 3.3638,-0.25392 6.2278,-2.59546 9.3418,-3.89258 2.93052,-3.6848 6.47361,-6.95647 8.79101,-11.05469 7.7862,-13.77008 12.41633,-32.04659 16.25195,-46.86523 1.9473,-7.52344 3.78883,-15.07042 5.55665,-22.63477 2.61508,2.20761 5.69328,4.79205 9.32031,7.82422 9.22293,7.71031 18.44755,15.43244 28.01367,22.71289 17.34335,13.19964 33.48137,25.02919 53.82617,33.13477 6.98639,2.78342 14.55908,3.78119 21.83789,5.67187 5.75615,-0.4956 11.74746,0.21884 17.26758,-1.48633 8.32804,-2.57195 13.73953,-9.16023 15.84766,-17.29296 0.88009,-3.39505 0.19216,-7.01159 0.28711,-10.51758 v -0.002 l -0.002,-0.002 v -0.002 -0.002 -0.002 h -0.002 c -0.0821,-0.12929 -1.83053,-0.17522 -1.99805,-0.0586 -10e-4,9.5e-4 -0.003,0.003 -0.004,0.004 l -0.002,0.002 v 0.002 l -0.002,0.002 v 0.002 0.002 c -0.12037,3.23269 0.48344,6.57704 -0.36328,9.69922 -2.10707,7.76955 -6.84453,12.70462 -14.81836,14.875 -4.53916,1.23538 -9.39575,0.48329 -14.09375,0.72461 -6.79946,-2.06359 -13.8887,-3.34323 -20.39844,-6.19141 -20.04562,-8.77036 -34.73983,-20.22007 -52.17578,-33.4414 -13.87622,-10.52197 -27.32293,-21.61397 -40.98047,-32.42579 6.50641,-28.52863 12.12048,-57.2618 18.63086,-85.79101 25.61003,6.9219 40.11393,-4.28239 64.01367,-14.1543 9.40632,-8.45433 20.07799,-15.68445 28.21875,-25.36328 15.57701,-18.52029 25.69298,-40.44962 28.86524,-64.45703 2.00957,-15.20721 0.41235,-35.73154 -10.63477,-48.19336 -4.09184,-4.615633 -10.75801,-6.039003 -16.13672,-9.058594 z m -2.47461,3.111328 c 4.76242,2.532675 10.75904,3.517356 14.28711,7.597656 10.01089,11.57811 10.52066,31.38028 8.43164,44.99414 -3.5053,22.84369 -13.14965,43.50747 -27.95703,61.26563 -7.68889,9.22136 -17.71744,16.20876 -26.57617,24.3125 -20.63439,9.87591 -34.54718,21.47041 -58.80273,14.58984 0.37918,-1.63012 0.76036,-3.26012 1.14648,-4.88867 9.58368,-37.82856 17.37047,-76.96735 38.22461,-110.66602 8.96122,-14.48069 18.77401,-27.215883 34.73047,-34.249998 5.11735,-2.255859 11.0106,-1.969756 16.51562,-2.955078 z M 172.39242,304.19901 c 7.87693,0.35599 14.33729,4.98993 22.07031,8.63477 30.52083,23.60649 9.54926,7.01994 26.65625,21.70508 -1.86141,9.13409 -3.75548,18.26239 -5.72656,27.37304 -3.30126,15.25812 -6.40878,32.39298 -13.28711,46.78711 -1.87222,3.91796 -4.89433,7.17291 -7.3418,10.75977 -2.63708,1.12143 -5.04708,3.2462 -7.91015,3.36523 -5.98491,0.24877 -15.25378,-6.6725 -18.75586,-9.88867 -8.76518,-8.04977 -13.92935,-16.18182 -18.52149,-27.28515 -2.50856,-6.06516 -3.90871,-12.5313 -5.86328,-18.79688 -0.71063,-6.47112 -2.30353,-12.90441 -2.13281,-19.41211 0.2977,-11.36827 3.52566,-24.28795 10.95703,-33.33398 3.02801,-3.686 6.88686,-7.11604 11.40625,-8.64258 3.03989,-1.02676 5.82358,-1.38429 8.44922,-1.26563 z" />
  </g>
</svg>
